<svg width="255" height="75" viewBox="0 0 255 75" fill="none" xmlns="http://www.w3.org/2000/svg">
<path fill-rule="evenodd" clip-rule="evenodd" d="M68 0H0V8V72H8H124V64H8V8H60V42H50V28V20H20V28V42V50H60H68V8V0ZM42 28H28V42H42V28Z" fill="#272526"/>
<rect x="28" y="28" width="14" height="14" fill="#DD2D26"/>
<path d="M104 25H83V46H104" stroke="black" stroke-width="8"/>
<path d="M104 25H83V46H104" stroke="black" stroke-width="8"/>
<path d="M196 50V26.5H175V50" stroke="black" stroke-width="8"/>
<path d="M209.5 25H231" stroke="black" stroke-width="8"/>
<path d="M210 46H231.5" stroke="black" stroke-width="8"/>
<circle cx="125.5" cy="35.5" r="10.5" stroke="black" stroke-width="8"/>
<path d="M151 50L151 34M151 34.5C151 33.0296 151.309 31.5757 151.906 30.2322C152.504 28.8888 153.377 27.6859 154.469 26.7013C155.561 25.7168 156.848 24.9726 158.246 24.5169C159.644 24.0613 161.122 23.9043 162.585 24.0562" stroke="black" stroke-width="8"/>
<path d="M243 50L243 34M243 34.5C243 33.0296 243.309 31.5757 243.906 30.2322C244.504 28.8888 245.377 27.6859 246.469 26.7013C247.561 25.7168 248.848 24.9726 250.246 24.5169C251.644 24.0613 253.122 23.9043 254.585 24.0562" stroke="black" stroke-width="8"/>
<path d="M137.018 64.7773H139.326L140.328 68.6973L141.594 64.7773H143.744L145.057 68.6973L146.059 64.7773H148.35L146.059 71H143.938L142.678 67.2559L141.459 71H139.326L137.018 64.7773ZM148.95 64.7773H151.258L152.26 68.6973L153.526 64.7773H155.676L156.989 68.6973L157.991 64.7773H160.282L157.991 71H155.87L154.61 67.2559L153.391 71H151.258L148.95 64.7773ZM160.882 64.7773H163.19L164.192 68.6973L165.458 64.7773H167.608L168.921 68.6973L169.923 64.7773H172.214L169.923 71H167.802L166.542 67.2559L165.323 71H163.19L160.882 64.7773ZM173.523 68.6094H176.071V71H173.523V68.6094ZM180.287 66.793L178.007 66.5527C178.093 66.1543 178.216 65.8418 178.377 65.6152C178.541 65.3848 178.775 65.1855 179.08 65.0176C179.298 64.8965 179.599 64.8027 179.982 64.7363C180.365 64.6699 180.779 64.6367 181.224 64.6367C181.939 64.6367 182.513 64.6777 182.947 64.7598C183.38 64.8379 183.742 65.0039 184.031 65.2578C184.234 65.4336 184.394 65.6836 184.511 66.0078C184.629 66.3281 184.687 66.6348 184.687 66.9277V69.6758C184.687 69.9688 184.705 70.1992 184.74 70.3672C184.779 70.5312 184.861 70.7422 184.986 71H182.748C182.658 70.8398 182.599 70.7188 182.572 70.6367C182.545 70.5508 182.517 70.418 182.49 70.2383C182.177 70.5391 181.867 70.7539 181.558 70.8828C181.136 71.0547 180.646 71.1406 180.088 71.1406C179.345 71.1406 178.781 70.9688 178.394 70.625C178.011 70.2812 177.82 69.8574 177.82 69.3535C177.82 68.8809 177.959 68.4922 178.236 68.1875C178.513 67.8828 179.025 67.6562 179.771 67.5078C180.666 67.3281 181.246 67.2031 181.511 67.1328C181.777 67.0586 182.058 66.9629 182.355 66.8457C182.355 66.5527 182.295 66.3477 182.173 66.2305C182.052 66.1133 181.839 66.0547 181.535 66.0547C181.144 66.0547 180.851 66.1172 180.656 66.2422C180.504 66.3398 180.38 66.5234 180.287 66.793ZM182.355 68.0469C182.027 68.1641 181.685 68.2676 181.33 68.3574C180.845 68.4863 180.539 68.6133 180.41 68.7383C180.277 68.8672 180.211 69.0137 180.211 69.1777C180.211 69.3652 180.275 69.5195 180.404 69.6406C180.537 69.7578 180.73 69.8164 180.984 69.8164C181.25 69.8164 181.496 69.752 181.722 69.623C181.953 69.4941 182.115 69.3379 182.209 69.1543C182.306 68.9668 182.355 68.7246 182.355 68.4277V68.0469ZM191.357 68.5684L193.625 68.8262C193.5 69.2988 193.295 69.709 193.01 70.0566C192.725 70.4004 192.359 70.668 191.914 70.8594C191.473 71.0508 190.91 71.1465 190.227 71.1465C189.566 71.1465 189.016 71.0859 188.574 70.9648C188.137 70.8398 187.76 70.6406 187.443 70.3672C187.127 70.0898 186.879 69.7656 186.699 69.3945C186.52 69.0234 186.43 68.5312 186.43 67.918C186.43 67.2773 186.539 66.7441 186.758 66.3184C186.918 66.0059 187.137 65.7266 187.414 65.4805C187.691 65.2305 187.977 65.0449 188.27 64.9238C188.734 64.7324 189.33 64.6367 190.057 64.6367C191.072 64.6367 191.846 64.8184 192.377 65.1816C192.912 65.5449 193.287 66.0762 193.502 66.7754L191.258 67.0742C191.188 66.8086 191.059 66.6094 190.871 66.4766C190.688 66.3398 190.439 66.2715 190.127 66.2715C189.732 66.2715 189.412 66.4141 189.166 66.6992C188.924 66.9805 188.803 67.4082 188.803 67.9824C188.803 68.4941 188.924 68.8828 189.166 69.1484C189.408 69.4141 189.717 69.5469 190.092 69.5469C190.404 69.5469 190.666 69.4668 190.877 69.3066C191.092 69.1465 191.252 68.9004 191.357 68.5684ZM195.028 67.9062C195.028 66.957 195.348 66.1758 195.989 65.5625C196.629 64.9453 197.495 64.6367 198.584 64.6367C199.83 64.6367 200.772 64.998 201.409 65.7207C201.92 66.3027 202.176 67.0195 202.176 67.8711C202.176 68.8281 201.858 69.6133 201.221 70.2266C200.588 70.8359 199.711 71.1406 198.59 71.1406C197.59 71.1406 196.782 70.8867 196.164 70.3789C195.407 69.75 195.028 68.9258 195.028 67.9062ZM197.418 67.9004C197.418 68.4551 197.53 68.8652 197.752 69.1309C197.979 69.3965 198.262 69.5293 198.602 69.5293C198.946 69.5293 199.227 69.3984 199.446 69.1367C199.668 68.875 199.78 68.4551 199.78 67.877C199.78 67.3379 199.668 66.9375 199.446 66.6758C199.223 66.4102 198.948 66.2773 198.62 66.2773C198.272 66.2773 197.985 66.4121 197.758 66.6816C197.532 66.9473 197.418 67.3535 197.418 67.9004ZM203.948 64.7773H206.18V65.7969C206.395 65.3555 206.616 65.0527 206.843 64.8887C207.073 64.7207 207.356 64.6367 207.692 64.6367C208.044 64.6367 208.429 64.7461 208.846 64.9648L208.108 66.6641C207.827 66.5469 207.604 66.4883 207.44 66.4883C207.128 66.4883 206.886 66.6172 206.714 66.875C206.468 67.2383 206.345 67.918 206.345 68.9141V71H203.948V64.7773ZM209.857 64.7773H212.077V65.791C212.409 65.377 212.745 65.082 213.085 64.9062C213.425 64.7266 213.839 64.6367 214.327 64.6367C214.988 64.6367 215.503 64.834 215.874 65.2285C216.249 65.6191 216.437 66.2246 216.437 67.0449V71H214.04V67.5781C214.04 67.1875 213.968 66.9121 213.823 66.752C213.679 66.5879 213.476 66.5059 213.214 66.5059C212.925 66.5059 212.691 66.6152 212.511 66.834C212.331 67.0527 212.241 67.4453 212.241 68.0117V71H209.857V64.7773ZM225.369 68.4805H220.588C220.63 68.8633 220.734 69.1484 220.898 69.3359C221.129 69.6055 221.429 69.7402 221.8 69.7402C222.035 69.7402 222.257 69.6816 222.468 69.5645C222.597 69.4902 222.736 69.3594 222.884 69.1719L225.234 69.3887C224.875 70.0137 224.441 70.4629 223.933 70.7363C223.425 71.0059 222.697 71.1406 221.748 71.1406C220.923 71.1406 220.275 71.0254 219.802 70.7949C219.33 70.5605 218.937 70.1914 218.625 69.6875C218.316 69.1797 218.162 68.584 218.162 67.9004C218.162 66.9277 218.472 66.1406 219.093 65.5391C219.718 64.9375 220.58 64.6367 221.677 64.6367C222.568 64.6367 223.271 64.7715 223.787 65.041C224.302 65.3105 224.695 65.7012 224.964 66.2129C225.234 66.7246 225.369 67.3906 225.369 68.2109V68.4805ZM222.943 67.3379C222.896 66.877 222.771 66.5469 222.568 66.3477C222.369 66.1484 222.105 66.0488 221.777 66.0488C221.398 66.0488 221.095 66.1992 220.869 66.5C220.724 66.6875 220.632 66.9668 220.593 67.3379H222.943ZM227.088 64.7773H229.32V65.7969C229.535 65.3555 229.756 65.0527 229.982 64.8887C230.213 64.7207 230.496 64.6367 230.832 64.6367C231.184 64.6367 231.568 64.7461 231.986 64.9648L231.248 66.6641C230.967 66.5469 230.744 66.4883 230.58 66.4883C230.268 66.4883 230.025 66.6172 229.854 66.875C229.607 67.2383 229.484 67.918 229.484 68.9141V71H227.088V64.7773ZM233.002 68.6094H235.551V71H233.002V68.6094ZM237.593 62.4102H239.977V65.5742C240.302 65.2383 240.624 64.998 240.944 64.8535C241.264 64.709 241.643 64.6367 242.081 64.6367C242.729 64.6367 243.239 64.834 243.61 65.2285C243.985 65.623 244.173 66.2285 244.173 67.0449V71H241.776V67.5781C241.776 67.1875 241.704 66.9121 241.559 66.752C241.415 66.5879 241.212 66.5059 240.95 66.5059C240.661 66.5059 240.427 66.6152 240.247 66.834C240.067 67.0527 239.977 67.4453 239.977 68.0117V71H237.593V62.4102ZM252.753 71H250.527V69.9922C250.195 70.4062 249.859 70.7012 249.519 70.877C249.183 71.0527 248.769 71.1406 248.277 71.1406C247.62 71.1406 247.105 70.9453 246.73 70.5547C246.359 70.1602 246.173 69.5547 246.173 68.7383V64.7773H248.57V68.1992C248.57 68.5898 248.642 68.8672 248.786 69.0312C248.931 69.1953 249.134 69.2773 249.396 69.2773C249.681 69.2773 249.913 69.168 250.093 68.9492C250.277 68.7305 250.368 68.3379 250.368 67.7715V64.7773H252.753V71Z" fill="black"/>
</svg>
